<svg xmlns="http://www.w3.org/2000/svg" viewBox="0 0 800 260" role="img" aria-labelledby="hero-title hero-desc" preserveAspectRatio="xMidYMid meet">
  <title id="hero-title">Chen Lab research map</title>
  <desc id="hero-desc">A schematic UMAP scatter showing four connected research clusters — dark proteome, cell states, rejuvenation, and high-throughput technology — with dashed transition arrows between them.</desc>

  <g fill="#D3D1C7" opacity="0.55">
    <circle cx="60" cy="40" r="1.8"/><circle cx="110" cy="180" r="1.8"/><circle cx="250" cy="55" r="1.8"/>
    <circle cx="290" cy="180" r="1.8"/><circle cx="480" cy="60" r="1.8"/><circle cx="500" cy="200" r="1.8"/>
    <circle cx="700" cy="150" r="1.8"/><circle cx="740" cy="80" r="1.8"/><circle cx="770" cy="220" r="1.8"/>
    <circle cx="90" cy="230" r="1.8"/><circle cx="450" cy="220" r="1.8"/><circle cx="650" cy="230" r="1.8"/>
    <circle cx="30" cy="130" r="1.8"/><circle cx="240" cy="220" r="1.8"/><circle cx="580" cy="230" r="1.8"/>
    <circle cx="130" cy="100" r="1.5"/><circle cx="220" cy="150" r="1.5"/><circle cx="470" cy="180" r="1.5"/>
    <circle cx="670" cy="60" r="1.5"/><circle cx="720" cy="200" r="1.5"/>
  </g>

  <g stroke="#888780" stroke-width="1.2" fill="none" stroke-dasharray="4 3" opacity="0.65">
    <path d="M 210 95 Q 290 110 355 130"/>
    <path d="M 440 128 Q 510 100 580 78"/>
    <path d="M 340 190 Q 370 165 395 155"/>
  </g>

  <g stroke="#888780" stroke-width="1.2" fill="#888780" opacity="0.65">
    <polygon points="358,133 349,127 351,138"/>
    <polygon points="580,78 573,85 569,74"/>
    <polygon points="395,155 388,148 384,158"/>
  </g>

  <g fill="#D85A30" opacity="0.9">
    <circle cx="165" cy="75" r="4"/><circle cx="180" cy="68" r="5"/><circle cx="195" cy="78" r="4"/>
    <circle cx="205" cy="90" r="4"/><circle cx="195" cy="105" r="5"/><circle cx="180" cy="108" r="4"/>
    <circle cx="165" cy="100" r="4"/><circle cx="155" cy="85" r="4"/><circle cx="175" cy="92" r="3"/>
    <circle cx="195" cy="92" r="3"/><circle cx="210" cy="78" r="3"/><circle cx="150" cy="95" r="3"/>
  </g>

  <g fill="#1D9E75" opacity="0.9">
    <circle cx="390" cy="115" r="4"/><circle cx="410" cy="118" r="5"/><circle cx="425" cy="128" r="4"/>
    <circle cx="435" cy="140" r="4"/><circle cx="425" cy="152" r="5"/><circle cx="410" cy="158" r="4"/>
    <circle cx="390" cy="155" r="4"/><circle cx="375" cy="145" r="5"/><circle cx="370" cy="130" r="4"/>
    <circle cx="380" cy="120" r="4"/><circle cx="400" cy="138" r="5"/><circle cx="415" cy="138" r="4"/>
    <circle cx="405" cy="148" r="3"/><circle cx="395" cy="125" r="3"/><circle cx="420" cy="128" r="3"/>
    <circle cx="388" cy="148" r="3"/><circle cx="438" cy="128" r="3"/><circle cx="368" cy="138" r="3"/>
  </g>

  <g fill="#7F77DD" opacity="0.9">
    <circle cx="580" cy="55" r="4"/><circle cx="595" cy="45" r="5"/><circle cx="615" cy="55" r="4"/>
    <circle cx="625" cy="65" r="4"/><circle cx="615" cy="75" r="5"/><circle cx="595" cy="78" r="4"/>
    <circle cx="580" cy="68" r="4"/><circle cx="610" cy="40" r="3"/><circle cx="585" cy="40" r="3"/>
    <circle cx="630" cy="45" r="3"/><circle cx="605" cy="88" r="3"/><circle cx="635" cy="80" r="4"/>
  </g>

  <g fill="#EF9F27" opacity="0.9">
    <circle cx="315" cy="195" r="4"/><circle cx="330" cy="190" r="5"/><circle cx="345" cy="198" r="4"/>
    <circle cx="355" cy="210" r="4"/><circle cx="345" cy="225" r="5"/><circle cx="330" cy="228" r="4"/>
    <circle cx="315" cy="220" r="4"/><circle cx="305" cy="205" r="4"/><circle cx="325" cy="212" r="3"/>
    <circle cx="345" cy="212" r="3"/><circle cx="320" cy="205" r="3"/><circle cx="335" cy="218" r="3"/>
  </g>

  <g font-family="ui-sans-serif, system-ui, -apple-system, Roboto, sans-serif" font-size="12" font-weight="500">
    <text x="80" y="50" fill="#993C1D">dark proteome</text>
    <text x="325" y="105" fill="#0F6E56">cell states</text>
    <text x="565" y="30" fill="#534AB7">rejuvenation</text>
    <text x="245" y="248" fill="#854F0B">high-throughput technology</text>
  </g>
</svg>
